<svg width="176" height="188" viewBox="0 0 176 188" fill="none" xmlns="http://www.w3.org/2000/svg">
<path d="M25.5015 151H4.95264V105.657H26.978C32.5356 105.739 36.4731 107.349 38.7905 110.487C40.1851 112.415 40.8823 114.722 40.8823 117.408C40.8823 120.177 40.1851 122.402 38.7905 124.083C38.0112 125.027 36.8628 125.888 35.3452 126.667C37.6626 127.508 39.4058 128.841 40.5747 130.667C41.7642 132.492 42.3589 134.707 42.3589 137.311C42.3589 139.998 41.6821 142.407 40.3286 144.54C39.4673 145.955 38.3906 147.145 37.0986 148.108C35.6426 149.216 33.9199 149.975 31.9307 150.385C29.9619 150.795 27.8188 151 25.5015 151ZM25.2861 131.036H13.9966V143.125H25.1323C27.1216 143.125 28.6699 142.858 29.7773 142.325C31.7871 141.341 32.792 139.454 32.792 136.665C32.792 134.307 31.8179 132.687 29.8696 131.805C28.7827 131.312 27.2549 131.056 25.2861 131.036ZM29.9927 122.392C31.2231 121.653 31.8384 120.331 31.8384 118.423C31.8384 116.311 31.0181 114.917 29.3774 114.24C27.9624 113.768 26.1577 113.532 23.9634 113.532H13.9966V123.53H25.1323C27.1216 123.53 28.7417 123.15 29.9927 122.392ZM86.9326 105.657L71.7671 133.958V151H62.2925V133.958L46.604 105.657H57.7705L67.1836 125.406L76.1968 105.657H86.9326ZM123.908 131.189H101.883V142.848H126.984V151H92.6235V105.657H125.877V113.686H101.883V123.314H123.908V131.189ZM171.035 151H161.561L143.042 118.792V151H134.213V105.657H144.149L162.207 137.311V105.657H171.035V151Z" fill="white"/>
<path d="M29.7622 156.052V161.532H20.5029V187H13.9941V161.532H4.69287V156.052H29.7622ZM55.1045 173.479H40.0713V181.436H57.2041V187H33.7515V156.052H56.4482V161.532H40.0713V168.104H55.1045V173.479ZM73.4761 182.528C75.0018 182.528 76.2406 182.36 77.1924 182.024C78.998 181.38 79.9009 180.183 79.9009 178.434C79.9009 177.412 79.453 176.621 78.5571 176.061C77.6613 175.515 76.2546 175.032 74.3369 174.612L71.0615 173.877C67.8421 173.15 65.6165 172.359 64.3848 171.505C62.2992 170.077 61.2563 167.845 61.2563 164.807C61.2563 162.036 62.2642 159.733 64.2798 157.899C66.2954 156.066 69.2559 155.149 73.1611 155.149C76.4225 155.149 79.201 156.017 81.4966 157.752C83.8062 159.474 85.0169 161.98 85.1289 165.269H78.9141C78.8021 163.407 77.9902 162.085 76.4785 161.301C75.4707 160.783 74.2179 160.524 72.7202 160.524C71.0545 160.524 69.7248 160.86 68.731 161.532C67.7371 162.204 67.2402 163.141 67.2402 164.345C67.2402 165.451 67.7301 166.277 68.71 166.823C69.3398 167.187 70.6836 167.614 72.7412 168.104L78.0742 169.384C80.4118 169.944 82.1755 170.693 83.3652 171.631C85.2129 173.087 86.1367 175.193 86.1367 177.951C86.1367 180.778 85.0519 183.13 82.8823 185.005C80.7267 186.867 77.6753 187.798 73.728 187.798C69.6968 187.798 66.5264 186.881 64.2168 185.047C61.9072 183.2 60.7524 180.666 60.7524 177.447H66.9253C67.1213 178.861 67.5062 179.917 68.0801 180.617C69.1299 181.891 70.9285 182.528 73.4761 182.528ZM113.411 156.052V161.532H104.151V187H97.6426V161.532H88.3413V156.052H113.411ZM138.753 173.479H123.72V181.436H140.853V187H117.4V156.052H140.097V161.532H123.72V168.104H138.753V173.479ZM170.919 187H164.452L151.812 165.017V187H145.787V156.052H152.568L164.893 177.657V156.052H170.919V187Z" fill="white"/>
<path d="M171.5 101.5H5V28H33V84.5H47.5V37H65L82.5 84.5V28L104 6.5L125.5 28V71.5H140.5V17L171.5 0.5V101.5Z" fill="#D9D9D9"/>
<rect x="90" y="39" width="9" height="9" fill="#688DB4"/>
<path d="M112 19L121 28H112V19Z" fill="#688DB4"/>
<rect x="109" y="39" width="9" height="9" fill="#688DB4"/>
<rect x="90" y="54" width="9" height="9" fill="#688DB4"/>
<rect x="109" y="54" width="9" height="9" fill="#688DB4"/>
<rect x="145" y="28" width="9" height="9" fill="#688DB4"/>
<rect x="157" y="15" width="9" height="9" fill="#688DB4"/>
<rect x="157" y="28" width="9" height="9" fill="#688DB4"/>
<rect x="157" y="43" width="9" height="9" fill="#688DB4"/>
<rect x="157" y="59" width="9" height="9" fill="#688DB4"/>
<rect x="145" y="43" width="9" height="9" fill="#688DB4"/>
<rect x="145" y="59" width="9" height="9" fill="#688DB4"/>
<rect x="53" y="43" width="9" height="9" fill="#688DB4"/>
<rect x="53" y="60" width="9" height="9" fill="#688DB4"/>
<rect x="53" y="74" width="9" height="9" fill="#688DB4"/>
<rect x="9" y="33" width="9" height="9" fill="#688DB4"/>
<rect x="21" y="47" width="9" height="9" fill="#688DB4"/>
<rect x="9" y="60" width="9" height="9" fill="#688DB4"/>
<rect x="21" y="73" width="9" height="9" fill="#688DB4"/>
<rect x="86" y="10" width="9" height="15" fill="#D9D9D9"/>
</svg>
